<svg width="656" height="650" viewBox="0 0 656 650" fill="none" xmlns="http://www.w3.org/2000/svg">
<path d="M565.667 309.713C565.667 167.408 450.231 52.0464 307.834 52.0464C165.436 52.0464 50 167.408 50 309.713C50 452.018 165.436 567.379 307.834 567.379C450.231 567.379 565.667 452.018 565.667 309.713Z" fill="#7B4AE2" fill-opacity="0.2"/>
<g filter="url(#filter0_d_21_4106)">
<circle cx="570.143" cy="331.11" r="35.8102" fill="#090E16"/>
</g>
<g clip-path="url(#clip0_21_4106)">
<path fill-rule="evenodd" clip-rule="evenodd" d="M585.251 313.205H555.036C553.491 313.205 552.238 314.458 552.238 316.003V346.218C552.238 347.763 553.491 349.015 555.036 349.015H585.251C586.796 349.015 588.049 347.763 588.049 346.218V316.003C588.049 314.458 586.796 313.205 585.251 313.205ZM573.293 345.112V341.248C573.994 341.836 574.755 342.277 575.577 342.57C576.399 342.864 577.229 343.011 578.066 343.011C578.558 343.011 578.987 342.967 579.353 342.878C579.72 342.79 580.026 342.667 580.272 342.51C580.517 342.353 580.701 342.168 580.821 341.955C580.942 341.741 581.003 341.51 581.003 341.26C581.003 340.922 580.906 340.621 580.713 340.355C580.519 340.089 580.256 339.844 579.921 339.618C579.587 339.393 579.19 339.176 578.731 338.967C578.272 338.757 577.776 338.544 577.245 338.327C575.891 337.763 574.882 337.075 574.218 336.262C573.553 335.449 573.221 334.467 573.221 333.316C573.221 332.415 573.402 331.64 573.765 330.992C574.127 330.344 574.621 329.811 575.245 329.392C575.869 328.974 576.592 328.666 577.414 328.469C578.236 328.271 579.106 328.173 580.024 328.173C580.926 328.173 581.726 328.227 582.423 328.336C583.119 328.444 583.762 328.611 584.35 328.837V332.447C584.06 332.246 583.744 332.068 583.401 331.916C583.059 331.763 582.706 331.636 582.344 331.535C581.981 331.434 581.621 331.36 581.262 331.312C580.904 331.264 580.564 331.239 580.241 331.239C579.798 331.239 579.396 331.282 579.033 331.366C578.671 331.451 578.364 331.569 578.115 331.722C577.865 331.875 577.672 332.058 577.535 332.272C577.398 332.485 577.329 332.724 577.329 332.99C577.329 333.28 577.406 333.539 577.559 333.769C577.712 333.998 577.929 334.216 578.211 334.421C578.493 334.626 578.836 334.827 579.238 335.024C579.641 335.222 580.096 335.425 580.604 335.634C581.297 335.924 581.919 336.232 582.471 336.558C583.023 336.884 583.496 337.252 583.891 337.663C584.285 338.073 584.587 338.542 584.797 339.069C585.006 339.596 585.111 340.21 585.111 340.91C585.111 341.876 584.928 342.687 584.561 343.343C584.195 343.999 583.697 344.53 583.069 344.937C582.441 345.343 581.71 345.635 580.876 345.812C580.042 345.989 579.162 346.078 578.236 346.078C577.285 346.078 576.381 345.997 575.523 345.836C574.665 345.675 573.922 345.434 573.293 345.112ZM571.822 331.634H566.854V345.798H562.918V331.634H557.974V328.452H571.822V331.634Z" fill="#7B4AE2" fill-opacity="0.5"/>
</g>
<g filter="url(#filter1_d_21_4106)">
<circle cx="85.8102" cy="239.794" r="35.8102" fill="#090E16"/>
</g>
<path d="M99.2074 233.496C98.7899 233.352 98.3572 233.216 97.9117 233.088C97.9849 232.789 98.0521 232.494 98.1119 232.204C99.0927 227.443 98.4514 223.608 96.2617 222.345C94.1619 221.134 90.728 222.396 87.26 225.415C86.9265 225.705 86.592 226.012 86.2577 226.334C86.035 226.121 85.8126 225.915 85.5908 225.718C81.9562 222.491 78.313 221.131 76.1254 222.397C74.0277 223.612 73.4065 227.217 74.2893 231.729C74.3746 232.165 74.4742 232.61 74.5869 233.063C74.0713 233.209 73.5735 233.365 73.0973 233.531C68.836 235.017 66.1146 237.345 66.1146 239.76C66.1146 242.255 69.036 244.757 73.4745 246.274C73.8247 246.393 74.1882 246.507 74.5627 246.614C74.4411 247.103 74.3354 247.583 74.2466 248.051C73.4048 252.484 74.0622 256.005 76.1543 257.211C78.3153 258.458 81.942 257.177 85.4735 254.09C85.7526 253.846 86.0327 253.587 86.3133 253.316C86.6771 253.666 87.0402 253.997 87.4014 254.308C90.8221 257.252 94.2006 258.441 96.2907 257.231C98.4496 255.981 99.1511 252.199 98.2403 247.598C98.1707 247.246 98.0898 246.887 97.9988 246.522C98.2535 246.447 98.5036 246.369 98.7474 246.288C103.362 244.759 106.364 242.288 106.364 239.76C106.364 237.336 103.554 234.992 99.2074 233.496ZM98.2066 244.656C97.9865 244.729 97.7607 244.799 97.5306 244.868C97.0212 243.255 96.3337 241.54 95.4924 239.769C96.2953 238.039 96.9562 236.346 97.4513 234.744C97.863 234.863 98.2626 234.989 98.6477 235.122C102.372 236.404 104.644 238.3 104.644 239.76C104.644 241.316 102.191 243.336 98.2066 244.656ZM96.5535 247.932C96.9563 249.966 97.0138 251.806 96.747 253.244C96.5073 254.536 96.0252 255.398 95.4292 255.743C94.1607 256.477 91.4482 255.522 88.5228 253.005C88.1874 252.716 87.8496 252.408 87.5108 252.082C88.6449 250.842 89.7783 249.4 90.8846 247.798C92.8303 247.626 94.6686 247.344 96.3357 246.958C96.4178 247.289 96.4907 247.614 96.5535 247.932ZM79.8364 255.616C78.5971 256.053 77.6101 256.066 77.0135 255.722C75.7439 254.99 75.2161 252.163 75.936 248.371C76.0185 247.937 76.1166 247.491 76.2298 247.035C77.8785 247.4 79.7034 247.662 81.6538 247.82C82.7675 249.387 83.9337 250.828 85.1089 252.089C84.8521 252.337 84.5963 252.573 84.342 252.795C82.7804 254.16 81.2155 255.129 79.8364 255.616ZM74.0305 244.647C72.068 243.976 70.4472 243.104 69.3362 242.153C68.338 241.298 67.8339 240.449 67.8339 239.76C67.8339 238.295 70.019 236.425 73.6632 235.155C74.1054 235.001 74.5683 234.855 75.0487 234.719C75.5523 236.357 76.213 238.07 77.0103 239.802C76.2027 241.56 75.5326 243.3 75.024 244.958C74.6816 244.859 74.3498 244.756 74.0305 244.647ZM75.9767 231.399C75.2203 227.533 75.7227 224.617 76.9868 223.886C78.3333 223.106 81.3109 224.217 84.4491 227.004C84.6497 227.182 84.8511 227.369 85.0531 227.561C83.8836 228.817 82.7281 230.247 81.6243 231.804C79.7314 231.98 77.9194 232.262 76.2534 232.639C76.1487 232.218 76.0559 231.804 75.9767 231.399ZM93.3383 235.686C92.9401 234.998 92.5312 234.327 92.1144 233.673C93.3986 233.836 94.629 234.051 95.7844 234.315C95.4375 235.427 95.0052 236.589 94.4962 237.781C94.1311 237.087 93.745 236.389 93.3383 235.686ZM86.2583 228.79C87.0514 229.649 87.8456 230.609 88.6268 231.65C87.8396 231.612 87.0427 231.593 86.2391 231.593C85.4432 231.593 84.6521 231.612 83.8697 231.648C84.6517 230.617 85.4528 229.659 86.2583 228.79ZM79.1329 235.698C78.7351 236.388 78.3561 237.083 77.9968 237.779C77.496 236.592 77.0677 235.424 76.7178 234.297C77.8662 234.04 79.0907 233.83 80.3668 233.67C79.9441 234.33 79.5318 235.006 79.1329 235.698V235.698ZM80.4035 245.973C79.0852 245.826 77.8422 245.627 76.6941 245.377C77.0496 244.229 77.4874 243.036 77.9987 241.823C78.359 242.519 78.7395 243.215 79.1397 243.906H79.1398C79.5475 244.61 79.9699 245.3 80.4035 245.973ZM86.3059 250.852C85.491 249.972 84.6781 249 83.8842 247.953C84.6549 247.984 85.4406 247.999 86.2391 247.999C87.0595 247.999 87.8705 247.981 88.6687 247.945C87.885 249.01 87.0936 249.984 86.3059 250.852ZM94.5126 241.761C95.0506 242.988 95.5041 244.174 95.8642 245.302C94.6972 245.568 93.4372 245.783 92.1097 245.942C92.5275 245.28 92.9399 244.597 93.3452 243.894C93.7552 243.183 94.1445 242.471 94.5126 241.761ZM91.8558 243.035C91.2267 244.126 90.5807 245.167 89.925 246.15C88.7306 246.236 87.4967 246.28 86.2391 246.28C84.9866 246.28 83.7682 246.241 82.595 246.165C81.9128 245.169 81.2529 244.124 80.6277 243.044H80.6278C80.0043 241.968 79.4305 240.881 78.9105 239.802C79.4303 238.719 80.0027 237.632 80.6226 236.557L80.6225 236.557C81.244 235.479 81.8982 234.44 82.5741 233.45C83.7711 233.36 84.9986 233.312 86.239 233.312H86.2391C87.4852 233.312 88.7142 233.36 89.9109 233.451C90.5764 234.434 91.2262 235.47 91.8502 236.548C92.4813 237.638 93.061 238.718 93.5853 239.777C93.0626 240.855 92.4841 241.945 91.8558 243.035ZM95.4028 223.834C96.7506 224.612 97.2748 227.746 96.4279 231.857C96.3739 232.119 96.3131 232.386 96.247 232.657C94.5772 232.272 92.7639 231.985 90.8654 231.807C89.7595 230.232 88.6134 228.8 87.4631 227.561C87.7723 227.263 88.0812 226.979 88.3888 226.712C91.3602 224.126 94.1374 223.105 95.4028 223.834ZM86.2391 236.166C88.2241 236.166 89.8332 237.775 89.8332 239.76C89.8332 241.745 88.2241 243.354 86.2391 243.354C84.2542 243.354 82.645 241.745 82.645 239.76C82.645 237.775 84.2542 236.166 86.2391 236.166Z" fill="#7B4AE2" fill-opacity="0.5"/>
<g filter="url(#filter2_d_21_4106)">
<circle cx="85.8102" cy="468.98" r="35.8102" fill="#090E16"/>
</g>
<g clip-path="url(#clip1_21_4106)">
<path fill-rule="evenodd" clip-rule="evenodd" d="M79.8885 451.074C76.5939 451.074 73.9201 453.748 73.9201 457.043C73.9201 460.337 76.5939 463.011 79.8885 463.011C76.5939 463.011 73.9201 465.685 73.9201 468.98C73.9201 472.274 76.5939 474.948 79.8885 474.948C76.5939 474.948 73.9201 477.622 73.9201 480.916C73.9201 484.211 76.5939 486.885 79.8885 486.885C83.183 486.885 85.8568 484.211 85.8568 480.916L85.8568 468.98C85.8568 472.274 88.5307 474.948 91.8252 474.948C95.1198 474.948 97.7936 472.274 97.7936 468.98C97.7936 465.685 95.1198 463.011 91.8252 463.011C95.1198 463.011 97.7936 460.337 97.7936 457.043C97.7936 453.748 95.1198 451.074 91.8252 451.074H79.8885ZM91.8252 463.011H85.8568L85.8568 468.98C85.8568 465.685 88.5307 463.011 91.8252 463.011Z" fill="#7B4AE2" fill-opacity="0.5"/>
</g>
<g filter="url(#filter3_f_21_4106)">
<circle cx="309.624" cy="305.148" r="255.148" fill="#7B4AE2" fill-opacity="0.2"/>
</g>
<g filter="url(#filter4_i_21_4106)">
<path fill-rule="evenodd" clip-rule="evenodd" d="M262.636 404.465C299.391 424.056 340.608 421.88 372.901 404.463V447.383L373.266 447.373V472.573H262.636V404.465Z" fill="#BB7D52"/>
<path fill-rule="evenodd" clip-rule="evenodd" d="M262.635 440.226C299.39 459.819 340.607 457.642 372.901 440.226V467.595L397.734 466.977L398.042 466.988C398.042 532.959 240.326 542.834 240.326 466.889L240.942 466.861L262.635 466.972V440.226Z" fill="#D08B5B"/>
<path fill-rule="evenodd" clip-rule="evenodd" d="M198.067 169.098C285.781 113.249 397.996 133.109 435.909 169.937C446.87 196.314 447.645 221.755 444.42 249.065C451.825 243.751 460.631 244.967 467.569 249.916C470.38 272.577 477.909 317.405 444.169 319.35C432.553 463.956 219.72 481.955 190.95 319.823C157.51 318.669 166.527 273.364 168.616 251.608C176.639 245.504 185.801 248.576 191.487 251.307L198.067 169.098Z" fill="#D08B5B"/>
<path fill-rule="evenodd" clip-rule="evenodd" d="M185.039 230.339C185.499 231.604 184.002 232.87 179.511 235.172C170.215 239.815 169.4 240.78 169.377 248.053V248.405C169.377 258.185 170.874 260.715 177.322 261.637C183.887 262.558 188.034 264.053 189.186 265.894C189.645 266.7 190.107 270.382 190.107 274.179C190.107 282.349 192.64 293.856 195.75 299.839C204.502 316.87 227.304 325.5 254.943 322.278C268.533 320.551 276.479 317.905 285.116 312.151C298.015 303.522 304.003 292.475 304.924 275.1C305.616 264.513 305.616 264.513 309.071 263.362C313.562 261.752 324.733 261.752 329.34 263.362C332.909 264.628 332.909 264.628 332.909 272.799C332.909 282.234 335.328 293.511 338.552 299.84C347.305 316.87 370.107 325.5 397.631 322.278C411.336 320.552 419.282 317.905 427.92 312.153C440.818 303.523 446.807 292.131 447.958 274.295C448.764 262.558 448.189 263.133 460.857 261.522C467.305 260.717 468.803 258.185 468.803 248.289C468.803 240.464 467.536 238.97 456.826 234.367L450.376 231.604L440.357 228.499L432.987 226.888C428.956 226.082 423.774 225.391 421.585 225.276C419.282 225.276 413.525 223.204 407.767 220.329C398.207 215.61 397.747 215.495 386.461 215.495C373.563 215.495 364.464 218.142 357.093 223.896C354.906 225.621 350.299 227.807 347.074 228.613C343.734 229.419 337.516 231.605 333.255 233.446C322.084 238.164 316.326 237.934 302.046 232.18C295.827 229.65 289.953 227.577 289.148 227.577C288.34 227.577 285.692 225.967 283.274 224.011C275.673 218.027 267.151 215.495 254.022 215.495C242.851 215.495 242.161 215.726 232.257 220.444C225.577 223.666 220.394 225.276 217.285 225.276C214.75 225.391 209.223 226.082 205.077 227.003L185.039 230.339ZM277.17 245.183C290.988 249.67 295.249 255.768 295.365 271.187C295.48 279.358 295.02 282.005 292.832 286.491C285.232 302.026 263.58 310.772 237.898 308.815C218.206 307.204 208.071 301.681 202.659 289.484C199.204 281.544 198.743 262.558 201.967 256.689C204.962 251.165 210.721 247.369 220.163 244.837C227.534 242.881 231.565 242.651 249.991 242.881C265.883 243.226 272.794 243.802 277.17 245.183ZM419.972 245.183C433.793 249.67 438.053 255.768 438.169 271.187C438.284 279.358 437.823 282.005 435.635 286.491C428.034 302.026 406.383 310.772 380.701 308.815C361.009 307.204 350.874 301.681 345.461 289.484C342.006 281.544 341.546 262.558 344.77 256.689C347.765 251.165 353.523 247.369 362.966 244.837C370.337 242.881 374.367 242.651 392.793 242.881C408.686 243.226 415.596 243.802 419.972 245.183Z" fill="#A66F49"/>
<path fill-rule="evenodd" clip-rule="evenodd" d="M288.225 56.6225L280.97 61.3407L277.284 57.7733C271.526 52.1353 268.762 53.1709 264.386 62.4914C261.737 68.2445 258.398 68.9354 252.64 65.1377C250.336 63.527 247.457 62.146 246.306 62.146C243.772 62.146 241.353 66.0582 240.317 71.2362C239.511 75.4938 236.747 79.406 234.444 79.406C233.638 79.406 230.643 78.3704 227.765 77.1045C223.388 75.1484 222.006 75.0333 219.588 76.0689C216.824 77.3348 216.593 78.025 216.593 85.6197C216.593 91.1432 215.787 95.4008 214.29 98.6227C212.102 103.455 211.987 103.571 206.574 103.571C197.591 103.571 193.33 108.058 197.706 113.006C200.01 115.422 198.512 117.954 194.022 118.99C185.729 121.061 183.311 126.354 187.802 131.992C190.912 136.019 190.797 136.595 185.844 138.897C180.662 141.428 179.857 144.305 183.196 147.872C185.729 150.634 185.729 150.748 184.347 165.938C182.966 180.666 183.426 221.746 185.039 226.003C185.499 227.269 184.002 228.535 179.511 230.836C170.067 235.554 169.377 236.474 169.377 244.069C169.377 253.85 170.874 256.381 177.323 257.302C183.887 258.222 188.033 259.718 189.185 261.559C189.645 262.365 190.106 266.047 190.106 269.844C190.106 278.014 192.64 289.521 195.749 295.504C204.502 312.535 227.304 321.164 254.944 317.943C268.533 316.217 276.479 313.57 285.116 307.817C298.015 299.187 304.003 288.14 304.925 270.765C305.616 260.178 305.616 260.178 309.071 259.028C313.562 257.417 324.733 257.417 329.339 259.028C332.91 260.294 332.91 260.294 332.91 268.464C332.91 277.9 335.328 289.176 338.553 295.505C347.305 312.535 370.107 321.165 397.631 317.944C411.336 316.217 419.282 313.571 427.92 307.818C440.818 299.188 446.807 287.796 447.958 269.96C448.764 258.223 448.189 258.799 460.857 257.187C467.306 256.382 468.803 253.85 468.803 243.955C468.803 236.13 467.536 234.634 456.826 230.032L450.377 227.27V215.763C450.261 196.086 447.498 182.163 442.66 177.675C441.048 176.18 437.478 173.878 434.599 172.497C430.108 170.311 429.187 170.196 427.805 171.692C426.423 173.073 426.768 174.339 430.223 181.243C434.484 189.758 438.284 204.141 439.551 216.569L440.357 224.164L432.987 222.552C428.956 221.747 423.774 221.057 421.585 220.942C419.282 220.942 413.524 218.87 407.766 215.994C398.207 211.276 397.747 211.16 386.461 211.16C373.562 211.16 364.464 213.807 357.094 219.56C354.906 221.287 350.299 223.473 347.075 224.279C343.735 225.084 337.516 227.27 333.255 229.111C322.084 233.829 316.326 233.599 302.045 227.845C295.827 225.314 289.953 223.243 289.147 223.243C288.341 223.243 285.692 221.632 283.274 219.676C275.673 213.692 267.151 211.16 254.022 211.16C242.851 211.16 242.16 211.391 232.256 216.108C225.576 219.33 220.394 220.942 217.285 220.942C214.751 221.057 209.223 221.747 205.078 222.667C193.331 225.199 194.252 226.695 195.173 207.363C195.864 190.794 198.052 176.756 200.586 171.922C203.465 166.514 226.267 154.892 248.84 147.298C276.825 137.977 308.264 134.41 343.735 136.827C374.138 138.783 382.2 141.314 415.828 159.38C427.574 165.709 438.515 170.772 441.048 171.117C445.195 171.692 445.54 171.462 446.806 168.009C449.571 160.07 447.382 140.048 442.776 130.958C439.321 124.284 439.091 121.752 441.048 114.848C442.43 110.015 442.43 108.98 440.703 106.448C439.091 104.032 437.939 103.572 433.333 103.572C430.338 103.687 425.732 104.147 423.083 104.607C418.361 105.528 418.246 105.528 418.822 102.536C421.125 91.2596 418.361 88.7278 407.19 91.6044C403.62 92.5249 400.28 93.1006 400.05 92.7551C399.705 92.4104 400.05 88.9581 400.856 85.1611C402.237 78.9474 402.123 77.9118 400.511 76.1853C398.783 74.5747 397.747 74.5747 391.067 75.8406C380.357 78.0269 376.326 76.9913 372.41 71.0073C368.38 65.139 364.694 63.0678 360.894 64.5633C358.821 65.3686 356.633 65.0239 352.487 63.1829C348.11 61.342 345.577 60.8814 341.662 61.4565C337.631 62.1473 335.443 61.6867 331.642 59.7307C327.727 57.7746 325.539 57.4292 320.817 58.0042C315.75 58.5799 313.907 58.1193 308.034 55.2428C304.349 53.4018 299.973 51.9057 298.36 51.7905C296.748 51.7905 292.256 53.9769 288.226 56.6238L288.225 56.6225ZM277.169 240.847C290.989 245.335 295.25 251.434 295.365 266.853C295.481 275.022 295.02 277.669 292.832 282.157C285.231 297.691 263.58 306.436 237.898 304.48C218.206 302.869 208.071 297.346 202.659 285.148C199.204 277.209 198.743 258.222 201.967 252.354C204.962 246.831 210.72 243.034 220.163 240.502C227.534 238.546 231.565 238.315 249.991 238.546C265.883 238.891 272.793 239.466 277.169 240.847ZM419.972 240.847C433.792 245.335 438.053 251.434 438.168 266.853C438.284 275.022 437.823 277.669 435.635 282.157C428.034 297.691 406.383 306.436 380.701 304.48C361.009 302.869 350.874 297.346 345.462 285.148C342.007 277.209 341.546 258.222 344.77 252.354C347.765 246.831 353.523 243.034 362.966 240.502C370.337 238.546 374.368 238.315 392.794 238.546C408.686 238.891 415.596 239.466 419.972 240.847Z" fill="#2C1B18"/>
<path fill-rule="evenodd" clip-rule="evenodd" d="M240.087 254.771C233.983 257.647 226.957 264.897 226.957 268.349C226.957 270.995 228.8 270.995 232.37 268.119C241.698 260.754 261.507 260.754 271.641 268.003C273.599 269.269 275.672 270.419 276.363 270.419C278.781 270.419 277.63 266.277 273.945 261.904C269.108 255.921 260.471 252.009 252.293 252.009C248.032 252.009 244.002 252.929 240.087 254.77V254.771Z" fill="#533824"/>
<path fill-rule="evenodd" clip-rule="evenodd" d="M373.677 254.771C367.573 257.647 360.548 264.897 360.548 268.349C360.548 270.995 362.391 270.995 365.961 268.119C375.289 260.754 395.097 260.754 405.232 268.003C407.189 269.269 409.262 270.419 409.954 270.419C412.372 270.419 411.22 266.277 407.535 261.904C402.698 255.921 394.061 252.009 385.884 252.009C381.623 252.009 377.593 252.929 373.677 254.77L373.677 254.771Z" fill="#533824"/>
<path fill-rule="evenodd" clip-rule="evenodd" d="M292.256 309.773C293.523 314.721 297.208 318.634 303.657 321.741C308.84 324.272 311.488 324.848 319.089 324.848C326.69 324.848 329.339 324.272 334.521 321.741C340.97 318.634 344.655 314.722 345.922 309.773L346.498 307.242H319.089H291.68L292.256 309.773Z" fill="#AF754C"/>
<path fill-rule="evenodd" clip-rule="evenodd" d="M185.039 226.003C185.499 227.269 184.002 228.535 179.511 230.836C170.215 235.479 169.4 236.446 169.377 243.718V244.07C169.377 253.85 170.874 256.381 177.322 257.302C183.887 258.222 188.034 259.718 189.186 261.559C189.645 262.365 190.107 266.047 190.107 269.844C190.107 278.014 192.64 289.522 195.75 295.504C204.502 312.535 227.304 321.164 254.943 317.943C268.533 316.216 276.479 313.57 285.116 307.817C298.015 299.187 304.003 288.141 304.924 270.765C305.616 260.178 305.616 260.178 309.071 259.028C313.562 257.418 324.733 257.418 329.34 259.028C332.909 260.293 332.909 260.293 332.909 268.464C332.909 277.899 335.328 289.176 338.552 295.506C347.305 312.535 370.107 321.164 397.631 317.943C411.336 316.217 419.282 313.57 427.92 307.818C440.818 299.188 446.807 287.796 447.958 269.96C448.764 258.222 448.189 258.799 460.857 257.187C467.305 256.382 468.803 253.85 468.803 243.954C468.803 236.13 467.536 234.635 456.826 230.032L450.376 227.269L440.357 224.164L432.987 222.552C428.956 221.747 423.774 221.056 421.585 220.941C419.282 220.941 413.525 218.87 407.767 215.994C398.207 211.276 397.747 211.16 386.461 211.16C373.563 211.16 364.464 213.807 357.093 219.561C354.906 221.286 350.299 223.473 347.074 224.278C343.734 225.084 337.516 227.27 333.255 229.111C322.084 233.829 316.326 233.599 302.046 227.845C295.827 225.315 289.953 223.242 289.148 223.242C288.34 223.242 285.692 221.632 283.274 219.676C275.673 213.692 267.151 211.16 254.022 211.16C242.851 211.16 242.161 211.391 232.257 216.109C225.577 219.331 220.394 220.941 217.285 220.941C214.75 221.056 209.223 221.747 205.077 222.667L185.039 226.003ZM277.17 240.848C290.988 245.336 295.249 251.434 295.365 266.853C295.48 275.023 295.02 277.67 292.832 282.156C285.232 297.691 263.58 306.437 237.898 304.479C218.206 302.869 208.071 297.346 202.659 285.149C199.204 277.209 198.743 258.222 201.967 252.354C204.962 246.83 210.721 243.034 220.163 240.502C227.534 238.546 231.565 238.316 249.991 238.546C265.883 238.89 272.794 239.467 277.17 240.848ZM419.972 240.848C433.793 245.336 438.053 251.434 438.169 266.853C438.284 275.023 437.823 277.67 435.635 282.156C428.034 297.691 406.383 306.437 380.701 304.479C361.009 302.869 350.874 297.346 345.461 285.149C342.006 277.209 341.546 258.222 344.77 252.354C347.765 246.83 353.523 243.034 362.966 240.502C370.337 238.546 374.367 238.316 392.793 238.546C408.686 238.89 415.596 239.467 419.972 240.848Z" fill="#090E16"/>
<path fill-rule="evenodd" clip-rule="evenodd" d="M286.958 356.03C288.455 365.581 295.711 375.362 304.694 379.965C311.258 383.417 323.35 384.107 330.26 381.461C340.625 377.434 349.608 366.617 351.22 356.03H286.958Z" fill="#3E291B"/>
<path fill-rule="evenodd" clip-rule="evenodd" d="M285.974 332.045C284.22 332.682 279.915 334.752 276.407 336.744C272.899 338.655 268.913 340.727 267.558 341.285C264.768 342.399 256.557 342.718 253.926 341.842C252.411 341.363 252.092 341.523 252.092 343.036C252.092 345.506 257.275 350.126 262.935 352.835C270.269 356.339 279.835 355.622 291.794 350.604C296.41 349.244 303.087 345.603 308.455 343.754C320.283 339.575 326.325 341.973 336.996 346.542L346.323 350.604C358.282 355.622 367.848 356.339 375.183 352.835C380.923 350.126 386.264 345.267 385.866 343.196C385.706 342.399 384.988 341.922 384.351 342.081C383.713 342.24 380.763 342.32 377.734 342.32C372.95 342.24 371.515 341.842 365.776 338.895C350.23 330.77 352.462 331.407 340.982 331.407C331.814 331.407 329.98 331.725 324.879 333.558L319.058 335.628L313.318 333.558C306.303 331.088 291.395 330.292 285.974 332.045Z" fill="#2C1B18" fill-opacity="0.301961"/>
<path d="M359.721 578.002L367.116 571.994C368.83 570.602 371.349 570.861 372.742 572.574C374.136 574.286 373.876 576.802 372.162 578.195L368.583 581.102L394.568 602.978C396.281 604.37 396.541 606.887 395.148 608.599C394.357 609.57 393.205 610.074 392.043 610.074C391.156 610.074 390.263 609.781 389.522 609.179L359.721 584.202C358.787 583.443 358.245 582.305 358.245 581.102C358.245 579.899 358.787 578.76 359.721 578.002Z" fill="#7B4AE2"/>
<path d="M392.56 541.293C394.683 541.31 396.391 543.043 396.374 545.165L396.044 606.263C396.027 608.384 394.291 610.091 392.168 610.074C391.63 610.07 391.12 609.955 390.656 609.752C389.291 609.154 388.341 607.786 388.354 606.201L388.685 545.104C388.702 542.982 390.437 541.276 392.56 541.293Z" fill="#7B4AE2"/>
<path d="M409.437 583.321L412.169 581.102L402.441 573.198C400.727 571.806 400.468 569.29 401.861 567.577C403.254 565.865 405.773 565.606 407.487 566.998L421.03 578.002C421.965 578.76 422.507 579.899 422.507 581.102C422.507 582.305 421.965 583.443 421.03 584.202L414.483 589.522C413.742 590.123 412.849 590.417 411.963 590.417C410.8 590.417 409.648 589.913 408.857 588.942C407.464 587.23 407.724 584.713 409.437 583.321Z" fill="#C83267"/>
<path fill-rule="evenodd" clip-rule="evenodd" d="M239.624 466.93C205.652 470.236 174.789 482.889 149.107 503.977C127.008 522.046 120.843 536.407 104.663 556.86C137.629 591.033 181.958 619.988 230.298 635.98C262.543 646.58 284.54 650 319.088 650C353.639 650 375.634 646.58 407.881 635.98C456.649 620.396 497.728 594.859 534.759 558.205C509.396 525.495 498.957 504.057 458.091 483.914C440.931 475.365 420.778 469.21 405.346 467.614L398.078 466.959L397.733 466.952L396.939 472.402C393.485 498.392 360.895 517.542 320.241 517.542C279.589 517.542 247.573 498.619 243.426 472.288C242.621 467.045 242.274 466.588 239.626 466.93H239.624Z" fill="#090E16"/>
<path fill-rule="evenodd" clip-rule="evenodd" d="M260.698 420.613L260.218 420.462C258.905 420.049 265.355 417.106 267.641 416.013C274.36 412.803 283.123 413.459 294.077 418.056C298.306 419.302 304.422 422.637 309.34 424.331C320.174 428.16 325.709 425.962 335.484 421.778L344.029 418.056C354.983 413.459 363.746 412.803 370.465 416.013C372.718 417.077 374.943 418.457 376.637 419.932L377.147 420.376C357.539 435.321 294.686 442.75 260.698 420.613Z" fill="#2C1B18" fill-opacity="0.501961"/>
<path d="M386.489 560.392L390.339 557.264C391.231 556.539 392.542 556.675 393.267 557.566C393.993 558.457 393.858 559.768 392.965 560.492L391.103 562.006L404.628 573.396C405.521 574.12 405.656 575.431 404.93 576.322C404.519 576.828 403.919 577.09 403.314 577.09C402.853 577.09 402.388 576.938 402.002 576.624L386.489 563.62C386.003 563.225 385.721 562.632 385.721 562.006C385.721 561.38 386.003 560.787 386.489 560.392Z" fill="white"/>
<path d="M403.584 541.28C404.689 541.289 405.578 542.191 405.569 543.296L405.397 575.106C405.388 576.211 404.485 577.099 403.379 577.09C403.099 577.088 402.834 577.028 402.592 576.923C401.882 576.611 401.387 575.899 401.394 575.074L401.566 543.264C401.575 542.16 402.478 541.271 403.584 541.28Z" fill="white"/>
<path d="M412.369 563.161L413.791 562.006L408.727 557.891C407.835 557.167 407.7 555.856 408.425 554.965C409.15 554.073 410.461 553.938 411.353 554.663L418.404 560.392C418.89 560.787 419.172 561.38 419.172 562.006C419.172 562.632 418.89 563.225 418.404 563.62L414.996 566.39C414.609 566.703 414.145 566.856 413.684 566.856C413.078 566.856 412.478 566.594 412.067 566.088C411.342 565.196 411.477 563.886 412.369 563.161Z" fill="#7B4AE2"/>
</g>
<defs>
<filter id="filter0_d_21_4106" x="484.333" y="249.3" width="171.62" height="171.62" filterUnits="userSpaceOnUse" color-interpolation-filters="sRGB">
<feFlood flood-opacity="0" result="BackgroundImageFix"/>
<feColorMatrix in="SourceAlpha" type="matrix" values="0 0 0 0 0 0 0 0 0 0 0 0 0 0 0 0 0 0 127 0" result="hardAlpha"/>
<feOffset dy="4"/>
<feGaussianBlur stdDeviation="25"/>
<feComposite in2="hardAlpha" operator="out"/>
<feColorMatrix type="matrix" values="0 0 0 0 0 0 0 0 0 0 0 0 0 0 0 0 0 0 0.5 0"/>
<feBlend mode="normal" in2="BackgroundImageFix" result="effect1_dropShadow_21_4106"/>
<feBlend mode="normal" in="SourceGraphic" in2="effect1_dropShadow_21_4106" result="shape"/>
</filter>
<filter id="filter1_d_21_4106" x="0" y="157.984" width="171.62" height="171.62" filterUnits="userSpaceOnUse" color-interpolation-filters="sRGB">
<feFlood flood-opacity="0" result="BackgroundImageFix"/>
<feColorMatrix in="SourceAlpha" type="matrix" values="0 0 0 0 0 0 0 0 0 0 0 0 0 0 0 0 0 0 127 0" result="hardAlpha"/>
<feOffset dy="4"/>
<feGaussianBlur stdDeviation="25"/>
<feComposite in2="hardAlpha" operator="out"/>
<feColorMatrix type="matrix" values="0 0 0 0 0 0 0 0 0 0 0 0 0 0 0 0 0 0 0.5 0"/>
<feBlend mode="normal" in2="BackgroundImageFix" result="effect1_dropShadow_21_4106"/>
<feBlend mode="normal" in="SourceGraphic" in2="effect1_dropShadow_21_4106" result="shape"/>
</filter>
<filter id="filter2_d_21_4106" x="0" y="387.169" width="171.62" height="171.62" filterUnits="userSpaceOnUse" color-interpolation-filters="sRGB">
<feFlood flood-opacity="0" result="BackgroundImageFix"/>
<feColorMatrix in="SourceAlpha" type="matrix" values="0 0 0 0 0 0 0 0 0 0 0 0 0 0 0 0 0 0 127 0" result="hardAlpha"/>
<feOffset dy="4"/>
<feGaussianBlur stdDeviation="25"/>
<feComposite in2="hardAlpha" operator="out"/>
<feColorMatrix type="matrix" values="0 0 0 0 0 0 0 0 0 0 0 0 0 0 0 0 0 0 0.5 0"/>
<feBlend mode="normal" in2="BackgroundImageFix" result="effect1_dropShadow_21_4106"/>
<feBlend mode="normal" in="SourceGraphic" in2="effect1_dropShadow_21_4106" result="shape"/>
</filter>
<filter id="filter3_f_21_4106" x="4.47626" y="0" width="610.296" height="610.296" filterUnits="userSpaceOnUse" color-interpolation-filters="sRGB">
<feFlood flood-opacity="0" result="BackgroundImageFix"/>
<feBlend mode="normal" in="SourceGraphic" in2="BackgroundImageFix" result="shape"/>
<feGaussianBlur stdDeviation="25" result="effect1_foregroundBlur_21_4106"/>
</filter>
<filter id="filter4_i_21_4106" x="104.663" y="51.7905" width="430.095" height="602.209" filterUnits="userSpaceOnUse" color-interpolation-filters="sRGB">
<feFlood flood-opacity="0" result="BackgroundImageFix"/>
<feBlend mode="normal" in="SourceGraphic" in2="BackgroundImageFix" result="shape"/>
<feColorMatrix in="SourceAlpha" type="matrix" values="0 0 0 0 0 0 0 0 0 0 0 0 0 0 0 0 0 0 127 0" result="hardAlpha"/>
<feOffset dy="4"/>
<feGaussianBlur stdDeviation="2"/>
<feComposite in2="hardAlpha" operator="arithmetic" k2="-1" k3="1"/>
<feColorMatrix type="matrix" values="0 0 0 0 0 0 0 0 0 0 0 0 0 0 0 0 0 0 0.25 0"/>
<feBlend mode="normal" in2="shape" result="effect1_innerShadow_21_4106"/>
</filter>
<clipPath id="clip0_21_4106">
<rect width="35.8102" height="35.8102" fill="white" transform="translate(552.238 313.205)"/>
</clipPath>
<clipPath id="clip1_21_4106">
<rect width="35.8102" height="35.8102" fill="white" transform="translate(67.9051 451.074)"/>
</clipPath>
</defs>
</svg>
